PathFileType	4	(X/Y/Z)	/Users/visionmauri/4_1_1_f_Sports2D/4_1_1_f_Sports2D_m_person00.trc
DataRate	CameraRate	NumFrames	NumMarkers	Units	OrigDataRate	OrigDataStartFrame	OrigNumFrames
30.0	30.0	8	22	m	30.0	0	355
Frame#	Time	Hip			RHip			RKnee			RAnkle			RBigToe			RSmallToe			RHeel			LHip			LKnee			LAnkle			LBigToe			LSmallToe			LHeel			Neck			Head			Nose			RShoulder			RElbow			RWrist			LShoulder			LElbow			LWrist			
		X1	Y1	Z1	X2	Y2	Z2	X3	Y3	Z3	X4	Y4	Z4	X5	Y5	Z5	X6	Y6	Z6	X7	Y7	Z7	X8	Y8	Z8	X9	Y9	Z9	X10	Y10	Z10	X11	Y11	Z11	X12	Y12	Z12	X13	Y13	Z13	X14	Y14	Z14	X15	Y15	Z15	X16	Y16	Z16	X17	Y17	Z17	X18	Y18	Z18	X19	Y19	Z19	X20	Y20	Z20	X21	Y21	Z21	X22	Y22	Z22
0	0.0	1.206545167137483	0.8822011159045329	0.0301	1.3256368242952121	0.8301348808932715	0.0301	1.2801293764501376	0.39961200800538227	0.129	1.2434761392406004	0.4283317070447209	0.023	1.219164793324457	0.4422694625682835	0.2179	1.2574253344290764	0.43543104363488533	0.1804	1.2229720410299356	0.4270426129250967	-0.0119	1.0836656255006345	0.901512090853578	0.0301	0.9845101516313911	0.400921881345769	0.129	0.8532671920504198	-0.08485090305501088	0.023	0.8558061908335213	-0.18712002337684264	0.2179	0.7917873238170332	-0.17716335371594336	0.1804	0.8219850192026774	-0.1804341811120634	-0.0119	1.4277722107376567	1.567647117656265	0.0008	1.5039704650673975	1.781062464927839	0.0655	1.4653524013333126	1.6606550951163859	0.1076	1.6038276926880475	1.4368998979512422	-0.01275	1.6634775349540754	1.0386305018897108	0.0702	1.7092098700606224	0.7457638227888771	0.1076	1.20033077193908	1.5399568653113216	-0.01275	0.9936635058627543	1.227951352909797	0.0702	0.9276965633524323	0.998243683721919	0.1076
1	0.033427495291902073	1.2084635048181898	0.8827865962787499	0.0301	1.3252118436761495	0.8324884608422279	0.0301	1.279963157070519	0.40473944508829435	0.129	1.244964189473072	0.42933958790846943	0.023	1.2255069913494159	0.4592580492281456	0.2179	1.2575430151550728	0.43886443796220326	0.1804	1.2233116315634915	0.4281476566380168	-0.0119	1.0842310235264714	0.9047041583968821	0.0301	0.9851882148081236	0.4046527447770073	0.129	0.8543057612818222	-0.08223948703034696	0.023	0.8546422717125967	-0.19331911389493273	0.2179	0.7922500782521057	-0.18016870503752117	0.1804	0.8209490792859222	-0.17645253486583798	-0.0119	1.4288107716592764	1.5667893243107993	0.0008	1.5053341301106007	1.7807092932872137	0.0655	1.466567032938464	1.6582168485332172	0.1076	1.6029395906233204	1.4381730842260816	-0.01275	1.6651376511515814	1.0423981978388663	0.0702	1.710342428906622	0.7440855010216461	0.1076	1.1997632153513391	1.5393484683624206	-0.01275	0.995597085538299	1.2270707918732564	0.0702	0.9293734916610249	0.996322243367135	0.1076
2	0.06685499058380415	1.2132987748734105	0.8814974439054337	0.0301	1.3279112028922362	0.830122396206701	0.0301	1.2801985300804841	0.4092945759616817	0.129	1.2485426876607437	0.4272723887283278	0.023	1.231044698503483	0.47186392768620905	0.2179	1.2551386394577926	0.43260719107152035	0.1804	1.2271641757286023	0.4291413060788252	-0.0119	1.087418391542372	0.9045403053502324	0.0301	0.9852754309916657	0.4062045368717524	0.129	0.8556433939788137	-0.08143314785837036	0.023	0.8535823300183039	-0.1955972583619855	0.2179	0.7891686709090803	-0.18158594400972045	0.1804	0.8222518183942348	-0.1748662378277451	-0.0119	1.4314417774980865	1.5647982431789615	0.0008	1.5081617764809545	1.7787313657736301	0.0655	1.4667998014451649	1.6543532152725582	0.1076	1.6044851335959607	1.4367131126195651	-0.01275	1.66623072174019	1.0468976674981485	0.0702	1.710644607380038	0.7434839664650277	0.1076	1.2002113705813189	1.5372143780360357	-0.01275	1.0012451625068717	1.226431322452836	0.0702	0.9293889018590465	0.9936723681257892	0.1076
3	0.10028248587570622	1.2195208991963786	0.8775051711876102	0.0301	1.3336302497811439	0.8233531745032939	0.0301	1.2812009946070912	0.40985397689578756	0.129	1.2527904890137875	0.42291999335126446	0.023	1.2338661361897683	0.47483245964224075	0.2179	1.2500075584880403	0.4175278361650758	0.1804	1.2318018324693172	0.42828133050961303	-0.0119	1.092520877718823	0.8995525723027934	0.0301	0.9843742367859296	0.4039811312506795	0.129	0.8560610047898967	-0.08300660984181771	0.023	0.8520615694697503	-0.19386092356119522	0.2179	0.7823839993955187	-0.1817310204968652	0.1804	0.8256999368859288	-0.1768635981285959	-0.0119	1.435395159204253	1.5612186863511062	0.0008	1.5118738624465484	1.7757949419968342	0.0655	1.4659066212399214	1.6510283387057596	0.1076	1.6090543477690218	1.4324192649595657	-0.01275	1.6668177570837273	1.0500700654177262	0.0702	1.710243839211132	0.7440389565393677	0.1076	1.2018405228061217	1.5335164884652304	-0.01275	1.0098016177436637	1.2263142239968008	0.0702	0.9274927442169741	0.9908780054561662	0.1076
4	0.1337099811676083	1.2234549692650198	0.8723974380915268	0.0301	1.3379390018937305	0.8172474251279369	0.0301	1.2831799803030386	0.40668858078155307	0.129	1.253887173055662	0.4202818292873471	0.023	1.2334690767819128	0.4697854249770086	0.2179	1.2465665382085362	0.41084228765996494	0.1804	1.2321908594659627	0.42486736280208676	-0.0119	1.0961770257337302	0.893084969667354	0.0301	0.9828903349666878	0.3978102465363144	0.129	0.855058237613574	-0.08735704042724719	0.023	0.8484524206822269	-0.18961924176023398	0.2179	0.7768767598112537	-0.18032963331571816	0.1804	0.8290349060837542	-0.18155860592968937	-0.0119	1.439670739939123	1.5576683185505558	0.0008	1.5148482588871048	1.773998023996977	0.0655	1.4667099965932635	1.6504272055756062	0.1076	1.6151079344332868	1.4278594483570233	-0.01275	1.6692650823219777	1.048852362570074	0.0702	1.7097862053675787	0.744525921840796	0.1076	1.2036564959080125	1.5298166362735608	-0.01275	1.016114758901341	1.2253338039350377	0.0702	0.9264075886238363	0.9886659654739683	0.1076
5	0.16713747645951038	1.2253058751023675	0.8691046858464933	0.0301	1.3387939157822093	0.8149815658237404	0.0301	1.2860462585053716	0.40634121499726983	0.129	1.2522114277581886	0.4210624353107682	0.023	1.2313906101145062	0.46275144287873976	0.2179	1.2489500484122926	0.4207268180658343	0.1804	1.2296267865975288	0.42065179843793793	-0.0119	1.0976368192343928	0.8892190385877795	0.0301	0.9827497686224578	0.39043259565677607	0.129	0.8542454496421904	-0.09350907417116108	0.023	0.8436216914048197	-0.1848599367528861	0.2179	0.7769706665385685	-0.1774736021577344	0.1804	0.8309592745876717	-0.1866516276630127	-0.0119	1.444261064716382	1.5564455256000032	0.0008	1.5174417654007502	1.7735265007877639	0.0655	1.4708682212000932	1.6513471620543678	0.1076	1.62084623307431	1.424704009163784	-0.01275	1.674780662203257	1.044650940071124	0.0702	1.7092790610732218	0.7445643456492028	0.1076	1.2055997082382164	1.5273382137368436	-0.01275	1.0169406226573199	1.2217076234703277	0.0702	0.9284940482966455	0.9868013675768099	0.1076
6	0.20056497175141244	1.2286215903066342	0.8682075484145004	0.0301	1.3409205466106089	0.815123725517469	0.0301	1.2889539359472806	0.4113436537619462	0.129	1.2533340687125427	0.4230574668552588	0.023	1.2311680034233035	0.4594392320102957	0.2179	1.2552203984611912	0.42996161862896515	0.1804	1.2303571538525413	0.41705342280010954	-0.0119	1.099506122075638	0.886598576856219	0.0301	0.9853385367481198	0.3863479797917653	0.129	0.8544688340754645	-0.09796323730408264	0.023	0.8421583220966238	-0.18317459021927	0.2179	0.7806881829059826	-0.17627001711353668	0.1804	0.8315506830740296	-0.18958147833802677	-0.0119	1.4498384341506316	1.556729789950716	0.0008	1.5219010329054663	1.7724158498455265	0.0655	1.4741485935073133	1.6518794518834496	0.1076	1.62575114741925	1.4222044236042766	-0.01275	1.6800656645231562	1.0424880708085356	0.0702	1.709096138017309	0.7457509052470095	0.1076	1.2093057296295837	1.5255628248046424	-0.01275	1.0157432652725746	1.216876421432742	0.0702	0.9319881584502075	0.9851153819969308	0.1076
7	0.2339924670433145	1.234228268316348	0.8680361721661194	0.0301	1.3473936431365359	0.8152645478349319	0.0301	1.29145718591148	0.4174274232839725	0.129	1.2597402484121947	0.42340643994507504	0.023	1.2346949765800759	0.4606828403389322	0.2179	1.260581628822872	0.42455151655179496	0.1804	1.2361995379969373	0.41345249063819955	-0.0119	1.1030187491086147	0.8827839135738899	0.0301	0.9888050385140774	0.38640480640209734	0.129	0.8546804071327768	-0.09904925326504149	0.023	0.845728830020482	-0.18423545134687996	0.2179	0.7834299535945912	-0.17768168340842994	0.1804	0.8307245516787279	-0.19032770695480816	-0.0119	1.4567424490366019	1.5553126947172389	0.0008	1.5287234343172527	1.7698475962721196	0.0655	1.4739998431579802	1.6516898595135532	0.1076	1.631057103758573	1.4186614410431355	-0.01275	1.682655601874683	1.0426856549749837	0.0702	1.7098632272918266	0.7490670383868899	0.1076	1.2158041219865112	1.5236505687077981	-0.01275	1.018069718602471	1.2144935088066038	0.0702	0.9340291564838313	0.9846371232198717	0.1076
